<?xml version="1.0" encoding="utf-8"?>
<!-- Generator: Adobe Illustrator 19.0.0, SVG Export Plug-In . SVG Version: 6.00 Build 0)  -->
<svg version="1.1" id="Layer_1" xmlns="http://www.w3.org/2000/svg" xmlns:xlink="http://www.w3.org/1999/xlink" x="0px" y="0px"
	 viewBox="0 0 373.3 117.9" style="enable-background:new 0 0 373.3 117.9;" xml:space="preserve">
<style type="text/css">
	.st0{fill:#23B852;}
	.st1{fill:#20202E;}
</style>
<g id="XMLID_845_">
	<path id="XMLID_856_" class="st0" d="M76.8,79.5h22.2v19.4H32.3l82.8-82.8c2.7-2.7,3.5-6.8,2.1-10.3c-1.5-3.5-4.9-5.8-8.8-5.8H9.5
		C4.2,0,0,4.2,0,9.5v28.9h0v41.1l41.1-41.1H18.9V18.9h66.6L2.8,101.7c-2.7,2.7-3.5,6.8-2.1,10.3c1.5,3.5,4.9,5.8,8.8,5.8h98.9
		c5.2,0,9.5-4.2,9.5-9.5V79.5h0V38.4L76.8,79.5z"/>
	<g id="XMLID_846_">
		<path id="XMLID_854_" class="st1" d="M175.7,24.3c11.5,0,19,4.5,22.6,7.3c2.3,1.5,2.4,3.8,0.8,6.1l-1.4,2
			c-1.6,2.4-3.5,2.6-6.1,1.1c-2.8-2-8.1-5.2-15.3-5.2c-13.8,0-23.9,10.3-23.9,24.4c0,14,10,24.7,24.1,24.7c8.3,0,14.2-3.8,17.5-6.2
			c2.4-1.6,4.5-1.4,6.1,1.2l1.1,2c1.4,2.3,0.9,4.5-1.2,6c-3.8,3.1-12.1,8.4-24.4,8.4c-21.6,0-36.6-15.3-36.6-35.9
			C139.1,39.9,154.3,24.3,175.7,24.3z"/>
		<path id="XMLID_851_" class="st1" d="M239.6,24.3c20.5,0,37,15,37,35.8c0,20.9-16.5,36.1-37,36.1c-20.5,0-36.9-15.2-36.9-36.1
			C202.7,39.3,219.1,24.3,239.6,24.3z M239.6,84.8c13,0,23.6-10.3,23.6-24.7c0-14.2-10.6-24.4-23.6-24.4
			c-12.9,0-23.6,10.2-23.6,24.4C216,74.5,226.7,84.8,239.6,84.8z"/>
		<path id="XMLID_849_" class="st1" d="M285.3,30.4c0-3,1.6-4.5,4.5-4.5h4.2c3,0,4.5,1.5,4.5,4.5V90c0,3-1.5,4.5-4.5,4.5h-4.2
			c-2.8,0-4.5-1.5-4.5-4.5V30.4z"/>
		<path id="XMLID_847_" class="st1" d="M311.2,30.4c0-3,1.6-4.5,4.5-4.5h3.8c3,0,4.5,1.5,4.5,4.5v6.1c0,2-0.4,3.9-0.4,3.9h0.3
			c2.7-6,11-16.1,26-16.1c16.1,0,23.5,8.8,23.5,26.3V90c0,3-1.5,4.5-4.5,4.5h-4.2c-2.8,0-4.5-1.5-4.5-4.5V53.6
			c0-9.6-1.9-17.2-12.9-17.2c-13.3,0-22.9,11.1-22.9,25.4V90c0,3-1.5,4.5-4.5,4.5h-4.2c-2.8,0-4.5-1.5-4.5-4.5V30.4z"/>
	</g>
</g>
</svg>
